<?xml version="1.0" standalone="no"?><!DOCTYPE svg PUBLIC "-//W3C//DTD SVG 1.1//EN" "http://www.w3.org/Graphics/SVG/1.1/DTD/svg11.dtd"><svg class="icon" width="500px" height="499.51px" viewBox="0 0 1025 1024" version="1.1" xmlns="http://www.w3.org/2000/svg"><path fill="#ffffff" d="M990.802032 1024H52.603949c-18.385982 0-33.196968-14.810986-33.196968-33.196968V395.300614c0-18.385982 14.810986-33.196968 33.196968-33.196968h938.198083c18.385982 0 33.196968 14.809986 33.196968 33.196968v595.502418c0 18.385982-14.810986 33.196968-33.196968 33.196968zM75.586926 967.820055H967.819055V418.282592H75.586926V967.820055zM454.543556 64.351937a64.350937 64.350937 0 1 0 128.701874 0 64.350937 64.350937 0 1 0-128.701874 0z"  /><path fill="#ffffff" d="M766.084252 403.471606L521.447491 158.835845 277.322729 403.470606l-39.836961-39.835961L521.447491 79.162923l284.472722 284.472722zM821.753198 631.254384h-600.099414c-15.321985 0-28.089973-12.767988-28.089973-28.089973s12.767988-28.089973 28.089973-28.089973h600.099414c15.320985 0 28.089973 12.767988 28.089972 28.089973s-12.768988 28.089973-28.089972 28.089973zM524.512488 805.410213h-302.859704c-15.319985 0-28.088973-12.767988-28.088973-28.089972s12.767988-28.089973 28.089973-28.089973h302.858704c15.320985 0 28.089973 12.768988 28.089972 28.089973s-12.768988 28.089973-28.089972 28.089972z"  /></svg>