<?xml version="1.0" standalone="no"?><!DOCTYPE svg PUBLIC "-//W3C//DTD SVG 1.1//EN" "http://www.w3.org/Graphics/SVG/1.1/DTD/svg11.dtd"><svg class="icon" width="500px" height="500.00px" viewBox="0 0 1024 1024" version="1.1" xmlns="http://www.w3.org/2000/svg"><path fill="#ffffff" d="M640 328.533333H311.466667c-21.333333 0-34.133333-17.066667-34.133334-34.133333-4.266667-21.333333 12.8-38.4 34.133334-38.4H640c21.333333 0 34.133333 17.066667 34.133333 34.133333 0 21.333333-17.066667 38.4-34.133333 38.4z"  /><path fill="#ffffff" d="M580.266667 482.133333H311.466667c-21.333333 0-34.133333-17.066667-34.133334-34.133333 0-21.333333 17.066667-34.133333 34.133334-34.133333h268.8c21.333333 0 34.133333 17.066667 34.133333 34.133333s-17.066667 34.133333-34.133333 34.133333z"  /><path fill="#ffffff" d="M452.266667 631.466667H311.466667c-21.333333 0-34.133333-17.066667-34.133334-34.133334 0-21.333333 17.066667-34.133333 34.133334-34.133333h140.8c21.333333 0 34.133333 17.066667 34.133333 34.133333 0 21.333333-12.8 34.133333-34.133333 34.133334z"  /><path fill="#ffffff" d="M857.6 448V136.533333c0-38.4-34.133333-72.533333-72.533333-72.533333H170.666667c-38.4 0-72.533333 34.133333-72.533334 72.533333v750.933334c0 38.4 34.133333 72.533333 72.533334 72.533333h204.8c21.333333 0 34.133333-17.066667 34.133333-34.133333 0-21.333333-17.066667-34.133333-34.133333-34.133334H170.666667V136.533333h614.4v311.466667c0 21.333333 17.066667 34.133333 34.133333 34.133333 21.333333 0 38.4-12.8 38.4-34.133333z"  /><path fill="#ffffff" d="M695.466667 499.2c-128 0-230.4 102.4-230.4 230.4s102.4 230.4 230.4 230.4c128 0 230.4-102.4 230.4-230.4s-102.4-230.4-230.4-230.4z m0 388.266667c-85.333333 0-157.866667-72.533333-157.866667-157.866667s72.533333-157.866667 157.866667-157.866667 157.866667 72.533333 157.866666 157.866667-68.266667 157.866667-157.866666 157.866667z"  /><path fill="#ffffff" d="M721.066667 648.533333c-12.8 12.8-12.8 34.133333-4.266667 46.933334h-123.733333c-21.333333 0-34.133333 17.066667-34.133334 34.133333 0 21.333333 17.066667 34.133333 34.133334 34.133333h123.733333c-8.533333 12.8-8.533333 34.133333 4.266667 46.933334 12.8 12.8 38.4 12.8 51.2 0l55.466666-55.466667c8.533333-8.533333 8.533333-17.066667 8.533334-25.6 0-8.533333-4.266667-17.066667-8.533334-25.6l-55.466666-55.466667c-12.8-17.066667-38.4-17.066667-51.2 0z"  /></svg>