<?xml version="1.0" standalone="no"?><!DOCTYPE svg PUBLIC "-//W3C//DTD SVG 1.1//EN" "http://www.w3.org/Graphics/SVG/1.1/DTD/svg11.dtd"><svg t="1555298978149" class="icon" style="" viewBox="0 0 1024 1024" version="1.1" xmlns="http://www.w3.org/2000/svg" p-id="3297" xmlns:xlink="http://www.w3.org/1999/xlink" width="500" height="500"><defs><style type="text/css"></style></defs><path d="M512 1024a512 512 0 1 1 512-512 512 512 0 0 1-512 512z m0-950.86C283.085 73.14 73.14 283.06 73.14 512S283.06 950.86 512 950.86 950.86 740.94 950.86 512 740.94 73.14 512 73.14z m229.453 671.974a48.64 48.64 0 0 1-68.941 0L517.35 589.978 362.19 745.114a48.82 48.82 0 0 1-69.12-68.967l155.16-155.161L293.07 365.85a48.82 48.82 0 0 1 69.12-68.967l155.16 155.162 155.162-155.162a48.768 48.768 0 1 1 68.94 68.967l-155.16 155.136 155.16 155.161a48.82 48.82 0 0 1 0 68.967z" p-id="3298" fill="#ffffff"></path></svg>