<?xml version="1.0" standalone="no"?><!DOCTYPE svg PUBLIC "-//W3C//DTD SVG 1.1//EN" "http://www.w3.org/Graphics/SVG/1.1/DTD/svg11.dtd"><svg class="icon" width="500px" height="500.00px" viewBox="0 0 1024 1024" version="1.1" xmlns="http://www.w3.org/2000/svg"><path fill="#ffffff" d="M488.239342 903.936507 186.652586 903.936507c-7.717775 0-14.360056-6.557346-14.360056-14.224979L172.29253 134.273123c0-7.65126 6.642281-14.20963 14.360056-14.20963l650.694829 0c7.735172 0 14.326287 6.558369 14.326287 14.20963l0 504.012072 56.365752 24.045649L908.039453 134.273123c0-38.271652-32.016181-69.969585-70.692039-69.969585L186.652586 64.303538c-38.658462 0-70.692039 31.697933-70.692039 69.969585l0 755.437381c0 38.271652 32.033577 69.985958 70.692039 69.985958l301.586756 0L488.239342 903.936507 488.239342 903.936507 488.239342 903.936507zM819.65752 632.803343c0-48.092321-39.753399-87.47426-88.381933-87.47426-48.596811 0-88.38398 39.381939-88.38398 87.47426 0 48.126091 39.787168 87.47426 88.38398 87.47426C779.904121 720.277604 819.65752 680.929434 819.65752 632.803343L819.65752 632.803343 819.65752 632.803343zM849.486896 749.806127 849.486896 749.806127l-16.578584 0-91.680049 184.76919 34.236755-170.575934L731.275587 720.277604l-44.192501 43.720757 34.236755 170.575934-91.678002-184.76919-17.658172 0 0 0c-58.550511 0-58.550511 39.34817-58.550511 87.440491l0 122.449843 354.605274 0L908.03843 837.246619C908.039453 789.154297 908.039453 749.806127 849.486896 749.806127L849.486896 749.806127 849.486896 749.806127zM261.78475 210.800054l497.133408 0 0 51.388391L261.78475 262.188444 261.78475 210.800054 261.78475 210.800054 261.78475 210.800054zM261.78475 343.087962l401.016303 0 0 55.759955L261.78475 398.847917 261.78475 343.087962 261.78475 343.087962 261.78475 343.087962zM261.78475 485.212914l325.885162 0 0 51.370994L261.78475 536.583908 261.78475 485.212914 261.78475 485.212914 261.78475 485.212914z" /></svg>