<?xml version="1.0" standalone="no"?><!DOCTYPE svg PUBLIC "-//W3C//DTD SVG 1.1//EN" "http://www.w3.org/Graphics/SVG/1.1/DTD/svg11.dtd"><svg class="icon" width="500px" height="500.00px" viewBox="0 0 1024 1024" version="1.1" xmlns="http://www.w3.org/2000/svg"><path fill="#ffffff" d="M889.019261 633.787764h-82.432431V495.265874h-1.093914v-1.038656H533.352819V388.04692h82.46006c38.376029-0.056282 69.420069-31.15865 69.420069-69.533656V135.183865c0-38.376029-31.04404-69.479421-69.420069-69.535702H398.553717c-38.317701 0.116657-69.361741 31.18935-69.393464 69.535702v183.328376c0 38.375006 31.135114 69.533656 69.393464 69.533656h87.623663v106.181321H201.632765V635.923404h-66.618257c-38.318724 0.084934-69.365834 31.15865-69.365834 69.475328v183.389773c0 38.373982 31.103392 69.563332 69.365834 69.563332h217.23051c38.343283-0.084934 69.419046-31.18935 69.419046-69.563332V705.398732c-0.028653-38.315654-31.076786-69.420069-69.419046-69.475328H249.844813v-90.049922h507.462661v87.913259h-85.579098c-38.34226 0.086981-69.359694 31.220049-69.359694 69.533656v183.38875c0 38.314631 31.102369 69.563332 69.359694 69.563332h217.290885c38.343283-0.086981 69.332065-31.219026 69.332065-69.563332V703.32142c0.060375-38.314631-30.988782-69.446675-69.332065-69.533656zM380.230396 318.513264V135.183865c0-10.100032 8.223289-18.294668 18.262946-18.294668H615.78525c10.126638 0 18.262946 8.194636 18.262945 18.294668v183.328376c0 10.097986-8.136308 18.349927-18.262945 18.349926H398.493342c-10.066263-0.053212-18.23327-8.250918-18.262946-18.348903z m-9.694803 386.885468v183.389773a18.255783 18.255783 0 0 1-18.291598 18.288529H135.014508c-10.100032 0-18.295692-8.191566-18.295691-18.288529V705.398732c0-10.039657 8.224312-18.291598 18.295691-18.291599h217.23051c10.127661 0 18.290575 8.251941 18.290575 18.291599z m536.691355 181.311439c0 10.126638-8.16496 18.291598-18.207687 18.291598H671.728376c-10.097986 0-18.234293-8.191566-18.234293-18.291598V703.32142c0-10.100032 8.195659-18.262946 18.234293-18.262946h217.290885c10.041704 0 18.207687 8.162914 18.207687 18.262946v183.388751z" /></svg>