<?xml version="1.0" standalone="no"?><!DOCTYPE svg PUBLIC "-//W3C//DTD SVG 1.1//EN" "http://www.w3.org/Graphics/SVG/1.1/DTD/svg11.dtd"><svg class="icon" width="500px" height="500.00px" viewBox="0 0 1024 1024" version="1.1" xmlns="http://www.w3.org/2000/svg"><path fill="#ffffff" d="M885.3 778.2l-22-12.7c-0.6-0.4-1-1.1-0.8-1.8 1.3-5.9 2-11.9 2-18.2 0-6.2-0.7-12.3-2-18.2-0.2-0.7 0.2-1.5 0.8-1.8l22-12.7c3.8-2.2 5.1-7.1 2.9-10.9l-16-27.7c-2.2-3.8-7.1-5.1-10.9-2.9l-22 12.7c-0.6 0.4-1.4 0.3-2-0.2-8.9-8.2-19.6-14.5-31.5-18.2-0.7-0.2-1.2-0.9-1.2-1.6v-31.8c0-0.9-0.8-1.7-1.7-1.7h-44.6c-0.9 0-1.7 0.8-1.7 1.7V664c0 0.7-0.5 1.4-1.2 1.6-11.8 3.7-22.6 10-31.5 18.2-0.5 0.5-1.3 0.6-2 0.2l-22-12.7c-3.8-2.2-8.7-0.9-10.9 2.9l-16 27.7c-2.2 3.8-0.9 8.7 2.9 10.9l23.1 13.3c-1.5 6.2-2.3 12.7-2.3 19.4s0.8 13.2 2.3 19.4l-23 13.3c-3.8 2.2-5.1 7.1-2.9 10.9l16 27.7c2.2 3.8 7.1 5.1 10.9 2.9l23.1-13.4c9.1 8.6 20.1 15.2 32.4 19 0.7 0.2 1.2 0.9 1.2 1.6v31.8c0 0.9 0.8 1.7 1.7 1.7H803c0.9 0 1.7-0.8 1.7-1.7v-31.8c0-0.7 0.5-1.4 1.2-1.6 11.8-3.7 22.5-10 31.5-18.2 0.5-0.5 1.3-0.6 2-0.2l22 12.7c3.8 2.2 8.7 0.9 10.9-2.9l16-27.7c2.2-3.7 0.9-8.6-3-10.8z m-69.2-27l-0.3 1.8c-0.3 1.3-0.6 2.5-1 3.7-1.5 4.7-4 8.9-7.2 12.5-0.9 1-1.8 2-2.8 2.9-2.3 2.1-4.9 3.9-7.7 5.3-1.1 0.6-2.3 1.1-3.5 1.5l-1.8 0.6c-1.7 0.6-3.5 1-5.4 1.3s-3.7 0.4-5.7 0.4c-1 0-1.9 0-2.9-0.1-2.8-0.2-5.6-0.8-8.2-1.6-4.9-1.6-9.3-4.2-13-7.5-2.8-2.5-5.1-5.4-7-8.6-1.4-2.4-2.5-5-3.3-7.7-0.3-0.9-0.5-1.8-0.7-2.8-0.1-0.7-0.3-1.4-0.4-2-0.2-1.2-0.3-2.3-0.4-3.5 0-0.6-0.1-1.3-0.1-1.9s0-1.3 0.1-1.9c0.1-1.3 0.2-2.5 0.4-3.7l0.3-1.8c0.6-2.8 1.5-5.5 2.7-8 1.6-3.4 3.8-6.5 6.3-9.1 0.6-0.7 1.3-1.3 2-1.9 3.7-3.3 8.1-5.9 12.9-7.5 1.7-0.6 3.5-1 5.4-1.3 0.5-0.1 0.9-0.1 1.4-0.2 1.4-0.2 2.8-0.3 4.3-0.3 1.4 0 2.8 0.1 4.1 0.2l1.8 0.3c1.8 0.3 3.5 0.7 5.1 1.2 2.4 0.8 4.7 1.8 6.9 3.1s4.2 2.7 6 4.4c1.4 1.2 2.7 2.6 3.8 4 2.3 2.9 4.2 6.1 5.6 9.6 0.7 1.8 1.2 3.6 1.6 5.5l0.3 1.8c0.3 1.8 0.4 3.7 0.4 5.6 0.4 1.9 0.2 3.8 0 5.7zM736.9 587.5c8.3-10.3 6.7-25.4-3.7-33.7-28-22.5-58.7-38.8-91.1-48.6-1.5-0.4-1.6-2.5-0.2-3.1 97.2-43.6 148.2-172.4 57.3-290.8l-0.3-0.3c-145.3-111.5-306.2-9.4-306.2 129.6 0 71.9 43.1 133.9 104.8 161.6 1.4 0.6 1.3 2.7-0.2 3.1-14.2 4.3-28.1 9.8-41.7 16.7-34.5 17.4-65.5 42.2-92 73.7-56 66.6-85.8 155.8-83.2 250 0 0.4 0.2 0.8 0.4 1.1 21.1 23.1 47.4 8.5 47.4-12.2 0-161 108.3-292 241.5-292 47.7 0 93.8 16.8 133.4 48.7 10.3 8.2 25.4 6.6 33.8-3.8zM475.2 434.6C369.9 297.3 526.4 140.7 663.8 246c0.1 0.1 0.3 0.2 0.3 0.3 105.4 137.4-51.2 294-188.6 188.7-0.1-0.1-0.2-0.3-0.3-0.4z"  /><path fill="#ffffff" d="M351.7 513.3c13.3 0 24-10.7 24-24s-10.7-24-24-24h-2.3c-47.2-1.2-85.2-40-85.2-87.5 0-51.6 44.8-92.9 97.6-87 0.4 0 1-0.1 1.3-0.4 24.4-21.2 9.7-48.2-11.3-48.2-74.7 0-135.5 60.8-135.5 135.5 0 42.6 19.7 80.6 50.5 105.5 1 0.8 0.8 2.3-0.3 2.8-0.3 0.1-0.5 0.3-0.8 0.4-25.9 13.4-49.1 32.4-68.9 56.6-42.1 51.4-64.3 120.4-61.8 192.9 0 0.4 0.2 0.8 0.4 1.1 21.1 23.1 47.4 8.5 47.4-12.3 0-115.7 74.6-210 166.7-211.5 0.7 0.1 1.4 0.1 2.2 0.1z"  /></svg>