<?xml version="1.0" standalone="no"?><!DOCTYPE svg PUBLIC "-//W3C//DTD SVG 1.1//EN" "http://www.w3.org/Graphics/SVG/1.1/DTD/svg11.dtd"><svg class="icon" width="500px" height="365.45px" viewBox="0 0 1401 1024" version="1.1" xmlns="http://www.w3.org/2000/svg"><path fill="#ffffff" d="M1367.572683 918.203947H1296.001653v-108.440955a2.644901 2.644901 0 0 0 0-0.634776c-2.750697-352.724042-206.725488-631.972724-542.204773-658.527534v-44.804629h82.626717c24.967869 0 45.174915-23.698316 45.174915-52.898026s-20.207046-52.898027-45.174915-52.898027h-270.837896c-24.967869 0-45.174915 23.645418-45.174915 52.898027s20.207046 52.898027 45.174915 52.898026h82.679616v44.804629c-336.854634 26.025829-539.559872 301.518752-542.151876 658.527534v109.075731H34.172125c-18.884596 0-34.172125 23.698316-34.172125 52.898026s15.28753 52.898027 34.172125 52.898027h1333.400558c18.884596 0 34.225023-23.698316 34.225023-52.898027s-15.340428-52.898027-34.225023-52.898026z m-666.515136-650.169646c273.535696 0 449.633227 199.055274 477.193099 471.162723H223.599959c26.925096-274.911045 201.911768-471.162723 477.298894-471.162723zM220.531873 849.436512h960.73396v68.767435H220.531873z"  /></svg>