<?xml version="1.0" standalone="no"?><!DOCTYPE svg PUBLIC "-//W3C//DTD SVG 1.1//EN" "http://www.w3.org/Graphics/SVG/1.1/DTD/svg11.dtd"><svg class="icon" width="500px" height="500.00px" viewBox="0 0 1024 1024" version="1.1" xmlns="http://www.w3.org/2000/svg"><path fill="#ffffff" d="M959.997 473.061c0-7.678-2.929-15.356-8.793-21.218a29.857 29.857 0 0 0-21.175-8.793h-45.805c-18.988 0-39.068-14.809-44.713-32.921l-23.756-57.707c-8.925-16.69-5.249-41.32 8.094-54.731l32.505-32.465c5.426-5.426 8.796-12.925 8.796-21.218 0-8.29-3.325-15.794-8.796-21.24l-55.169-55.082c-5.423-5.423-12.905-8.771-21.175-8.771-8.268 0-15.792 3.37-21.218 8.771l-32.505 32.507c-13.343 13.388-38.063 17.064-54.776 8.091l-57.663-23.734c-18.025-5.598-32.901-25.723-32.901-44.688v-45.87a29.912 29.912 0 0 0-8.793-21.2A29.86 29.86 0 0 0 550.979 64h-77.92c-7.698 0-15.354 2.932-21.218 8.793a29.91 29.91 0 0 0-8.793 21.2v45.87c0 18.965-14.744 39.09-32.856 44.688l-57.707 23.737c-16.755 8.97-41.343 5.339-54.686-8.094l-32.637-32.482c-5.428-5.426-12.952-8.751-21.22-8.751-8.268 0-15.75 3.367-21.173 8.773l-55.037 55.037c-5.428 5.423-8.751 12.905-8.796 21.195 0 8.268 3.367 15.775 8.796 21.198l32.46 32.527c13.432 13.433 17.109 38.04 8.094 54.733l-23.756 57.747c-5.6 18.114-25.68 32.923-44.668 32.923l-45.85-0.042c-7.698 0-15.356 2.932-21.218 8.793S64 465.386 64 473.064v77.897c0 7.678 2.929 15.356 8.793 21.218 5.861 5.844 13.52 8.771 21.218 8.771h45.85c18.988 0.045 39.026 14.854 44.626 32.926l23.801 57.705c8.925 16.733 5.294 41.433-8.094 54.773l-32.55 32.463c-5.426 5.426-8.796 12.93-8.796 21.243 0 8.268 3.37 15.794 8.796 21.218l55.169 55.082c5.423 5.426 12.905 8.771 21.175 8.771a29.94 29.94 0 0 0 21.218-8.771l32.55-32.485c13.343-13.365 37.931-17.039 54.599-7.984l57.837 23.734c18.112 5.622 32.858 25.703 32.858 44.693v45.696a29.908 29.908 0 0 0 8.793 21.218c5.861 5.841 13.517 8.771 21.218 8.771h77.875c7.701 0 15.356-2.929 21.218-8.771a29.923 29.923 0 0 0 8.796-21.218v-45.696c0-18.99 14.876-39.071 32.901-44.693l57.75-23.734c16.71-9.055 41.385-5.381 54.818 7.984l32.331 32.463c5.426 5.448 12.905 8.838 21.218 8.838a29.77 29.77 0 0 0 21.22-8.773l55.169-55.124c5.471-5.446 8.793-12.95 8.793-21.24 0-8.293-3.37-15.794-8.793-21.22l-32.507-32.463c-13.343-13.34-17.019-38.038-8.091-54.773l23.756-57.705c5.642-18.069 25.81-32.881 44.71-32.881h45.805a29.839 29.839 0 0 0 21.175-8.793 29.91 29.91 0 0 0 8.796-21.218v-77.922h-0.004z m-447.868 211.16c-95.198 0-172.331-77.086-172.331-172.263 0-95.158 77.133-172.288 172.331-172.288 95.158 0 172.288 77.131 172.288 172.288 0.001 95.177-77.13 172.263-172.288 172.263z"  /></svg>