<?xml version="1.0" standalone="no"?><!DOCTYPE svg PUBLIC "-//W3C//DTD SVG 1.1//EN" "http://www.w3.org/Graphics/SVG/1.1/DTD/svg11.dtd"><svg class="icon" width="500px" height="480.75px" viewBox="0 0 1065 1024" version="1.1" xmlns="http://www.w3.org/2000/svg"><path fill="#ffffff" d="M209.717462 1024a21.513896 21.513896 0 0 1-21.513896-21.280317c-0.430278-38.934006-0.208992-78.421226 0-116.617612 0.172111-31.053773 0.356516-62.980395 0.172111-94.661144h-47.945255c-77.450027 0.012294-140.430422-70.135302-140.430422-156.39988V156.362999C0 70.147596 62.968101 0 140.381247 0H924.863965c77.450027 0 140.381247 70.147596 140.381248 156.362999v478.678048c0 86.215403-62.968101 156.362999-140.381248 156.362999H456.279008c-37.274362 36.807203-75.581391 74.069272-112.695936 110.175737-39.142998 38.110331-79.61371 77.450027-118.732121 116.150453a21.513896 21.513896 0 0 1-15.133489 6.269764zM140.381247 43.027793c-25.349517 0-49.432787 11.482274-67.811801 32.320019-19.055165 21.612246-29.504772 50.403986-29.504772 81.015187v478.678048c0 30.635788 10.486488 59.402941 29.504772 81.015187 18.379014 20.899214 42.449991 32.320019 67.811801 32.320019h69.336215a21.513896 21.513896 0 0 1 21.513896 21.280317c0.430278 38.946299 0.208992 78.445813 0 116.642199-0.122937 21.378666-0.245873 43.175317-0.245873 65.008849 27.586962-27.046041 55.407503-54.092082 82.588775-80.572616 39.142998-38.110331 79.61371-77.450027 118.732121-116.150453a21.513896 21.513896 0 0 1 15.182664-6.159121h477.424095c25.349517 0 49.432787-11.482274 67.811801-32.32002 19.055165-21.612246 29.504772-50.403986 29.504773-81.015186V156.362999c0-30.635788-10.486488-59.402941-29.504773-81.015187-18.379014-20.899214-42.449991-32.320019-67.811801-32.320019zM147.068996 241.607203h772.607047v43.027793H147.068996zM147.068996 450.402641h409.919635v43.027793H147.068996z" /></svg>