<?xml version="1.0" standalone="no"?><!DOCTYPE svg PUBLIC "-//W3C//DTD SVG 1.1//EN" "http://www.w3.org/Graphics/SVG/1.1/DTD/svg11.dtd"><svg t="1555039233474" class="icon" style="" viewBox="0 0 1024 1024" version="1.1" xmlns="http://www.w3.org/2000/svg" p-id="1273" xmlns:xlink="http://www.w3.org/1999/xlink" width="500" height="500"><defs><style type="text/css"></style></defs><path d="M927.4 784.1H704.1c-19.1 0-31.9 12.8-31.9 31.9 0 19.1 12.8 31.9 31.9 31.9h223.3c19.1 0 31.9-12.8 31.9-31.9 0-12.8-12.7-31.9-31.9-31.9z m0-178.6H704.1c-19.1 0-31.9 12.8-31.9 31.9 0 19.1 12.8 31.9 31.9 31.9h223.3c19.1 0 31.9-12.8 31.9-31.9 0-12.8-12.7-31.9-31.9-31.9z m0-172.3H704.1c-19.1 0-31.9 12.8-31.9 31.9 0 19.1 12.8 31.9 31.9 31.9h223.3c19.1 0 31.9-12.8 31.9-31.9 0-19.1-12.7-31.9-31.9-31.9zM563.8 943.6c-19.1 0-31.9-12.8-31.9-31.9V414.1c0-6.4 0-19.1 6.4-25.5l216.9-242.4H174.6l216.9 242.4c6.4 6.4 6.4 12.8 6.4 25.5v299.8l51 44.7c12.8 12.8 19.1 31.9 6.4 44.7-12.8 12.8-31.9 19.1-44.7 6.4l-63.8-51c-6.4-6.4-12.8-12.8-12.8-25.5V426.8L78.9 133.4c-12.8-12.8-12.8-25.5-12.8-38.3C72.5 82.3 85.2 76 98 76h733.7c12.8 0 25.5 6.4 31.9 19.1 6.4 12.8 0 25.5-6.4 38.3L602.1 426.8v484.9c0 19.1-19.2 31.9-38.3 31.9z" p-id="1274" fill="#333333"></path></svg>