<?xml version="1.0" standalone="no"?><!DOCTYPE svg PUBLIC "-//W3C//DTD SVG 1.1//EN" "http://www.w3.org/Graphics/SVG/1.1/DTD/svg11.dtd"><svg class="icon" width="500px" height="500.00px" viewBox="0 0 1024 1024" version="1.1" xmlns="http://www.w3.org/2000/svg"><path fill="#ffffff" d="M262.233292 52.525222A91.871156 91.871156 0 0 0 132.807561 41.521156a249.190914 249.190914 0 0 0-30.453113 350.850571l215.538945 258.915438a37.682528 37.682528 0 0 0 40.177637 11.707814l124.243583-38.834117 299.093074 356.67249a99.80432 99.80432 0 0 0 143.69263 21.368361 102.875222 102.875222 0 0 0 8.381003-148.298983L262.233292 52.525222z m628.639261 901.053873a44.911944 44.911944 0 0 1-64.808831-10.364294L517.310102 578.737101a36.339009 36.339009 0 0 0-38.194346-11.57986l-124.30756 37.490597-207.797712-249.830685a194.234561 194.234561 0 0 1 23.351652-269.279733 33.715947 33.715947 0 0 1 47.279097 3.838628l671.8878 800.097965c21.368361 25.910737 18.169504 49.90216 1.34352 64.105082z m76.324714-708.802603a36.275032 36.275032 0 0 0-50.477954 4.542377l-206.51817 245.992057a35.955146 35.955146 0 0 0-1.023634 52.14136 35.571283 35.571283 0 0 0 52.077382-1.663406l210.420775-250.534433a36.019123 36.019123 0 0 0-4.478399-50.477955zM598.88094 316.622807a36.339009 36.339009 0 0 0 51.181703-4.606353l139.150253-165.700762a36.275032 36.275032 0 1 0-55.02033-46.575349L594.402541 265.505082a35.955146 35.955146 0 0 0 4.478399 51.117725z m86.752986 72.550064c15.226557 12.411563 37.746506 10.428272 50.477954-4.542376l139.214231-165.700762a36.211055 36.211055 0 0 0-55.02033-46.639327l-139.214231 166.340533a36.275032 36.275032 0 0 0 4.542376 50.541932z m0 0"  /><path fill="#ffffff" d="M466.192376 661.65146a36.019123 36.019123 0 0 0-23.991423 9.660546h1.34352l-212.340089 248.61512a48.750572 48.750572 0 0 1-74.469377 9.724524 48.750572 48.750572 0 0 1 0-75.109149l136.655146-163.0777a35.379352 35.379352 0 0 0 7.741233-21.36836 36.402986 36.402986 0 0 0-36.211055-36.275032 35.827192 35.827192 0 0 0-27.894028 14.266899l-138.510482 160.582592a119.893138 119.893138 0 0 0 12.283608 176.768805 119.829161 119.829161 0 0 0 175.489263-18.169504l209.653049-247.2716a36.466963 36.466963 0 0 0-29.749365-58.347141z m29.749365-379.960165a35.827192 35.827192 0 0 0 26.614485-12.347585L695.422426 60.970203a36.339009 36.339009 0 0 0-23.415628-60.778272 36.0831 36.0831 0 0 0-34.227764 17.401779L467.407942 223.408132a36.019123 36.019123 0 0 0-7.741233 22.008132 36.466963 36.466963 0 0 0 36.275032 36.275031z m0 0"  /></svg>