<?xml version="1.0" standalone="no"?><!DOCTYPE svg PUBLIC "-//W3C//DTD SVG 1.1//EN" "http://www.w3.org/Graphics/SVG/1.1/DTD/svg11.dtd"><svg class="icon" width="500px" height="500.00px" viewBox="0 0 1024 1024" version="1.1" xmlns="http://www.w3.org/2000/svg"><path fill="#ffffff" d="M796.158976 287.9232H985.598976v415.8976h-189.44V287.9232zM796.158976 128c-1.664-37.12 11.5968-65.1776 63.1552-64h63.1296c51.6096 0.256 63.3344 25.216 63.1552 64v95.9744h-189.44v-96zM606.718976 1023.744H164.683776C94.974976 1023.744 38.398976 966.4512 38.398976 895.7696V191.9488C38.398976 121.2928 94.949376 64 164.683776 64V0H227.838976v64h126.2848V0H417.278976v64h126.2848V0H606.718976v64c69.7344 0 126.2848 57.2928 126.2848 127.9488v703.8208c0 70.656-56.5504 127.9744-126.2848 127.9744z m-31.5648-703.8208h-378.88c-17.4336 0-31.5904 14.336-31.5904 32s14.1568 32 31.5904 32h378.88c17.408 0 31.5648-14.336 31.5648-32s-14.1568-32-31.5648-32z m0 191.9488h-378.88c-17.4336 0-31.5904 14.336-31.5904 32s14.1568 32 31.5904 32h378.88c17.408 0 31.5648-14.336 31.5648-32s-14.1568-32-31.5648-32z m0 191.9488h-378.88c-17.4336 0-31.5904 14.336-31.5904 32s14.1568 32 31.5904 32h378.88c17.408 0 31.5648-14.336 31.5648-32s-14.1568-32-31.5648-32zM890.878976 1024l-94.72-256.1792H985.598976L890.878976 1024z"  /></svg>