<?xml version="1.0" standalone="no"?><!DOCTYPE svg PUBLIC "-//W3C//DTD SVG 1.1//EN" "http://www.w3.org/Graphics/SVG/1.1/DTD/svg11.dtd"><svg t="1554281222584" class="icon" style="" viewBox="0 0 1026 1024" version="1.1" xmlns="http://www.w3.org/2000/svg" p-id="1348" xmlns:xlink="http://www.w3.org/1999/xlink" width="500.9765625" height="500"><defs><style type="text/css"></style></defs><path d="M745.30133333 360.56177778c10.24-13.53955555 5.00622222-34.816-11.264-45.96622223-15.47377778-9.216-35.15733333-3.86844445-45.39733333 9.55733334L450.73066666 644.43733333l-128-112.07111111c-14.22222222-12.17422222-31.744-13.08444445-43.69066666-2.27555555-11.264 11.15022222-11.03644445 27.30666667 0.79644444 40.04977778l149.27644444 138.46755555c15.24622222 14.44977778 42.21155555 12.85688889 54.61333334-2.95822222C500.79288888 683.46311111 745.30133333 360.56177778 745.30133333 360.56177778z" p-id="1349" data-spm-anchor-id="a313x.7781069.0.i7" class="" fill="#5cb85c"></path><path d="M993.54168888 492.19356445c0 263.89162667-213.79299555 477.68462222-477.68462222 477.68462222s-477.68462222-213.79299555-477.68462222-477.68462222 213.79299555-477.68462222 477.68462222-477.68462223S993.54168888 228.30193778 993.54168888 492.19356445zM517.02215111 86.74417778c-216.70570667 0-407.77955555 190.49130667-407.77955556 406.61447111 0 224.86129778 182.33571555 407.77955555 407.77955556 407.77955556s407.77955555-182.33571555 407.77955555-407.77955556C924.21916444 278.40056889 736.64056888 86.74417778 517.02215111 86.74417778z" p-id="1350" fill="#5cb85c"></path></svg>