<?xml version="1.0" standalone="no"?><!DOCTYPE svg PUBLIC "-//W3C//DTD SVG 1.1//EN" "http://www.w3.org/Graphics/SVG/1.1/DTD/svg11.dtd"><svg class="icon" width="500px" height="500.00px" viewBox="0 0 1024 1024" version="1.1" xmlns="http://www.w3.org/2000/svg"><path fill="#ffffff" d="M896 93.44a26.24 26.24 0 0 0-23.04 0L118.4 576a26.24 26.24 0 0 0 9.6 48l346.88 25.6 170.24 271.36a26.24 26.24 0 0 0 21.12 10.88h5.12a26.24 26.24 0 0 0 19.84-19.84l224.64-788.48a25.6 25.6 0 0 0-19.84-30.08z m-243.2 752.64L512 611.2a26.24 26.24 0 0 0-17.92-10.88l-292.48-19.84 652.8-407.68z"  /></svg>