<?xml version="1.0" standalone="no"?><!DOCTYPE svg PUBLIC "-//W3C//DTD SVG 1.1//EN" "http://www.w3.org/Graphics/SVG/1.1/DTD/svg11.dtd"><svg class="icon" width="500px" height="500.00px" viewBox="0 0 1024 1024" version="1.1" xmlns="http://www.w3.org/2000/svg"><path fill="#ffffff" d="M419.84 923.30666667h-204.8c-64 0-115.2-51.2-115.2-115.2V170.66666667C102.4 109.22666667 153.6 55.46666667 215.04 55.46666667h563.2c64 0 115.2 51.2 115.2 115.2v230.4c0 17.92-12.8 30.72-30.72 30.72s-30.72-12.8-30.72-30.72v-230.4c0-28.16-23.04-53.76-53.76-53.76h-563.2c-28.16 0-53.76 23.04-53.76 53.76v637.44c0 28.16 23.04 53.76 53.76 53.76h204.8c17.92 0 30.72 12.8 30.72 30.72 0 15.36-12.8 30.72-30.72 30.72z"  /><path fill="#ffffff" d="M709.12 288.42666667H284.16c-17.92 0-30.72-12.8-30.72-30.72s12.8-30.72 30.72-30.72h424.96c17.92 0 30.72 12.8 30.72 30.72 0 15.36-12.8 30.72-30.72 30.72zM709.12 421.54666667H284.16c-17.92 0-30.72-12.8-30.72-30.72s12.8-30.72 30.72-30.72h424.96c17.92 0 30.72 12.8 30.72 30.72s-12.8 30.72-30.72 30.72zM384 557.22666667h-99.84c-17.92 0-30.72-12.8-30.72-30.72s12.8-30.72 30.72-30.72H384c17.92 0 30.72 12.8 30.72 30.72 0 15.36-12.8 30.72-30.72 30.72z"  /><path fill="#ffffff" d="M834.56 943.78666667h-230.4l-115.2-199.68 115.2-199.68h230.4l115.2 199.68-115.2 199.68zM640 882.34666667h158.72l79.36-138.24-79.36-138.24H640l-79.36 138.24 79.36 138.24z"  /><path fill="#ffffff" d="M719.36 744.10666667m-40.96 0a40.96 40.96 0 1 0 81.92 0 40.96 40.96 0 1 0-81.92 0Z"  /></svg>