<?xml version="1.0" standalone="no"?><!DOCTYPE svg PUBLIC "-//W3C//DTD SVG 1.1//EN" "http://www.w3.org/Graphics/SVG/1.1/DTD/svg11.dtd"><svg class="icon" width="500px" height="497.09px" viewBox="0 0 1030 1024" version="1.1" xmlns="http://www.w3.org/2000/svg"><path fill="#ffffff" d="M137.216 465.92c-2.048 0-3.584 0-5.632-0.512-13.824-3.072-22.528-16.896-19.456-30.72 1.536-6.656 3.072-13.824 5.12-20.48l4.608-15.36c20.48-66.56 57.856-128 107.52-177.664 81.92-81.92 190.976-126.976 306.688-126.976 14.336 0 25.6 11.264 25.6 25.6s-11.264 25.6-25.6 25.6c-102.4 0-198.144 39.936-270.336 112.128-44.032 44.032-76.8 97.792-94.72 156.672-1.536 4.608-2.56 8.704-4.096 13.312-1.536 6.144-3.072 12.288-4.608 17.92-2.56 12.288-13.312 20.48-25.088 20.48zM536.064 961.536c-14.336 0-25.6-11.264-25.6-25.6s11.264-25.6 25.6-25.6c102.4 0 198.144-39.936 270.336-112.128 70.144-70.144 110.08-163.84 112.128-263.168 0.512-18.432-0.512-36.864-3.072-55.296-1.536-13.824 8.192-26.624 22.016-28.672 13.824-1.536 26.624 8.192 28.672 22.016 2.56 20.48 3.584 41.984 3.072 62.464-2.048 112.64-47.104 218.624-126.976 297.984-81.408 82.944-190.464 128-306.176 128z"  /><path fill="#ffffff" d="M326.144 963.072c-158.72 0-287.744-129.024-287.744-287.744 0-14.336 11.264-25.6 25.6-25.6H588.8c14.336 0 25.6 11.264 25.6 25.6 0 158.72-129.024 287.744-288.256 287.744z m-235.008-262.144c12.8 118.784 113.664 210.944 235.52 210.944s222.72-92.672 235.52-210.944h-471.04zM588.8 582.656H88.064c-14.336 0-25.6-11.264-25.6-25.6s11.264-25.6 25.6-25.6H588.8c14.336 0 25.6 11.264 25.6 25.6s-11.776 25.6-25.6 25.6z"  /><path fill="#ffffff" d="M545.792 818.176H99.328c-14.336 0-25.6-11.264-25.6-25.6s11.264-25.6 25.6-25.6h446.464c14.336 0 25.6 11.264 25.6 25.6s-11.264 25.6-25.6 25.6zM153.088 679.936c-14.336 0-25.6-11.264-25.6-25.6v-126.464c0-14.336 11.264-25.6 25.6-25.6s25.6 11.264 25.6 25.6v126.464c0 14.336-11.264 25.6-25.6 25.6zM283.136 679.936c-14.336 0-25.6-11.264-25.6-25.6v-126.464c0-14.336 11.264-25.6 25.6-25.6s25.6 11.264 25.6 25.6v126.464c0 14.336-11.264 25.6-25.6 25.6zM964.608 406.528h-328.192c-14.336 0-25.6-11.264-25.6-25.6V66.56c0-14.336 11.264-25.6 25.6-25.6 195.072 0 353.792 152.576 353.792 339.968 0 14.336-11.264 25.6-25.6 25.6z m-302.592-51.2h275.968c-12.8-139.264-130.048-250.368-275.968-262.144v262.144z"  /></svg>