<?xml version="1.0" standalone="no"?><!DOCTYPE svg PUBLIC "-//W3C//DTD SVG 1.1//EN" "http://www.w3.org/Graphics/SVG/1.1/DTD/svg11.dtd"><svg class="icon" width="500px" height="500.00px" viewBox="0 0 1024 1024" version="1.1" xmlns="http://www.w3.org/2000/svg"><path fill="#000000" d="M868.625792 516.809539c21.116947-4.0175 34.980699-24.39255 30.965246-45.50745l-10.171664-53.53631c-4.0175-21.115923-24.394596-34.980699-45.509497-30.966269l-66.552765 17.046235c-9.829879-24.187889-22.8668-46.726208-38.585807-67.092048l45.75816-49.522903c13.5629-16.675798 11.038404-41.190121-5.634324-54.753021l-42.270732-34.392298c-16.675798-13.560854-41.196261-11.037381-54.757115 5.637394l-38.191834 53.495378c-21.679765-11.256368-44.978401-19.818371-69.456908-25.255197l4.104481-65.052598c0-21.496593-17.424858-38.922475-38.921451-38.922475l-54.490032 0c-21.496593 0-38.922475 17.425881-38.922475 38.922475l4.086062 64.914452c-26.202779 5.756097-51.064003 15.086603-74.03825 27.474748l-38.957267-52.649104c-13.848403-16.441461-38.402635-18.542308-54.842049-4.692882l-41.678238 35.106566c-16.438391 13.848403-18.540262 38.401612-4.691859 54.843072l46.286186 48.416709c-15.443737 20.667715-28.148084 43.497677-37.610596 67.942415l-66.367547-15.800871c-21.183462-3.65218-41.317011 10.559497-44.969191 31.742958l-9.258874 53.700039c-3.64911 21.183462 10.56052 41.317011 31.745005 44.969191l70.242807 7.605212c1.672082 25.768897 6.737448 50.609655 14.775518 74.075089l-64.360843 32.393781c-18.552541 10.854209-24.794709 34.694173-13.942547 53.248761l27.51568 47.037293c10.855232 18.552541 34.695197 24.794709 53.247738 13.939477l61.619406-41.452087c16.984836 17.749246 36.233226 33.311687 57.275471 46.239114l-29.601178 69.151963c-7.196912 20.255323 3.38919 42.509163 23.64349 49.707099l51.347458 18.250666c20.253276 7.194866 42.510186-3.390213 49.705052-23.64349l20.944008-73.228815c11.062963 1.297552 22.312168 1.985214 33.723056 1.985214 13.249769 0 26.28362-0.918929 39.055504-2.660596l22.204721 72.92387c7.544837 20.12741 29.978778 30.328749 50.106188 22.784936l51.02921-19.123546c20.125363-7.543813 30.328749-29.979802 22.783913-50.105165l-30.879288-68.876694c20.73423-13.277398 39.632649-29.161157 56.262398-47.174416l62.648852 40.615023c18.739806 10.532891 42.468231 3.8814 53.001121-14.854313l26.709315-47.50085c10.532891-18.73776 3.8814-42.468231-14.854313-53.001121l-65.346287-31.508621c7.580652-23.499204 12.220323-48.319495 13.459546-74.034157L868.625792 516.809539zM511.828596 695.855378c-101.727892 0-184.195116-82.468247-184.195116-184.196139 0-101.728916 82.467223-184.196139 184.195116-184.196139s184.195116 82.467223 184.195116 184.196139C696.023712 613.387132 613.556489 695.855378 511.828596 695.855378z" /></svg>