<?xml version="1.0" standalone="no"?><!DOCTYPE svg PUBLIC "-//W3C//DTD SVG 1.1//EN" "http://www.w3.org/Graphics/SVG/1.1/DTD/svg11.dtd"><svg class="icon" width="500px" height="500.00px" viewBox="0 0 1024 1024" version="1.1" xmlns="http://www.w3.org/2000/svg"><path fill="#e6e6e6" d="M886.624 541.312l-42.976-42.976a551.568 551.568 0 0 0 43.92-42.704 32 32 0 0 0-47.152-43.28C753.04 507.568 637.008 560 513.68 560c-124.32 0-241.552-53.136-330.112-149.648a32 32 0 1 0-47.152 43.28c14.32 15.6 29.376 30.08 44.96 43.664l-44 44a32 32 0 1 0 45.248 45.248l49.856-49.856a512.08 512.08 0 0 0 83.728 46.16l-24.4 58.896a32 32 0 0 0 59.12 24.496l25.568-61.712c33.584 9.68 68.208 15.792 103.488 18.176V688a32 32 0 0 0 64 0v-65.008a490.8 490.8 0 0 0 107.168-18.624l25.632 61.888a32 32 0 0 0 59.12-24.496l-24.512-59.184a507.936 507.936 0 0 0 81.12-44.848l48.832 48.832a32 32 0 0 0 45.28-45.248z" /></svg>