<?xml version="1.0" standalone="no"?><!DOCTYPE svg PUBLIC "-//W3C//DTD SVG 1.1//EN" "http://www.w3.org/Graphics/SVG/1.1/DTD/svg11.dtd"><svg class="icon" width="500px" height="500.00px" viewBox="0 0 1024 1024" version="1.1" xmlns="http://www.w3.org/2000/svg"><path fill="#ffffff" d="M647.157 465.073c51.211-40.214 84.246-102.497 84.246-172.494 0-120.995-98.425-219.422-219.421-219.422-120.997 0-219.422 98.425-219.422 219.422 0 69.997 33.07 132.28 84.248 172.494C241.955 518.965 146.28 650.71 146.28 804.56v73.14c0 20.215 16.357 36.571 36.572 36.571h658.262c20.214 0 36.57-16.356 36.57-36.571v-73.14c0.001-153.887-95.639-285.595-230.527-339.487zM511.984 146.3c80.676 0 146.282 65.603 146.282 146.28S592.66 438.86 511.984 438.86 365.7 373.255 365.7 292.579s65.606-146.28 146.283-146.28z m292.56 694.833H219.421V804.56c0-161.314 131.246-292.56 292.597-292.56 161.315 0 292.524 131.246 292.524 292.56v36.572z"  /><path fill="#ffffff" d="M267.17 477.787c1.001-2.214 1.001-4.571 1.5-6.857 0.357-1.393 0.75-2.713 0.93-4.178 0.284-2.893 0.107-5.641-0.286-8.463-0.143-1.5 0.214-2.929-0.143-4.428-0.214-0.858-0.82-1.465-1.071-2.323-0.57-1.642-1.357-3.106-2.143-4.642-1.5-3.144-3.144-6-5.393-8.534-0.322-0.357-0.715-0.607-1.071-0.964a35.093 35.093 0 0 0-11.5-8c-39.57-17.642-65.141-56.927-65.141-100.211 0-50.928 34.497-94.782 83.924-106.675 19.642-4.751 31.713-24.5 26.999-44.142-4.786-19.643-24.607-31.57-44.142-26.999-82.39 19.856-139.924 92.996-139.924 177.816 0 46.285 17.607 89.675 47.535 122.673C62.071 501.18 0.002 599.817 0.002 711.422v56.57c0 20.214 16.356 36.57 36.57 36.57s36.57-16.356 36.57-36.57v-56.57c0-101.14 67.998-187.922 165.565-212.493 12.142-1.715 23.177-9.106 28.464-21.142zM866.578 451.858c29.927-32.998 47.532-76.39 47.532-122.673 0-82.604-55.64-155.244-135.316-176.636-19.463-5.216-39.534 6.32-44.82 25.82-5.25 19.535 6.321 39.571 25.821 44.82 47.783 12.821 81.176 56.427 81.176 105.998 0 43.284-25.536 82.498-65.07 100.174-4.427 1.93-8.32 4.608-11.677 8.108-0.285 0.322-0.644 0.536-0.929 0.858-2.286 2.534-3.928 5.464-5.464 8.642-0.75 1.536-1.57 2.964-2.106 4.571-0.25 0.821-0.858 1.465-1.072 2.322-0.356 1.5 0 2.93-0.142 4.43-0.394 2.82-0.57 5.57-0.286 8.462 0.18 1.465 0.57 2.785 0.93 4.178 0.498 2.286 0.498 4.643 1.499 6.857 5.286 12.036 16.32 19.429 28.461 21.142 97.568 24.573 165.567 111.353 165.567 212.493v56.57c0 20.214 16.356 36.57 36.57 36.57s36.569-16.356 36.569-36.57v-56.57c0.002-111.607-62.067-210.245-157.243-259.566z"  /></svg>