<?xml version="1.0" standalone="no"?><!DOCTYPE svg PUBLIC "-//W3C//DTD SVG 1.1//EN" "http://www.w3.org/Graphics/SVG/1.1/DTD/svg11.dtd"><svg class="icon" width="200px" height="200.00px" viewBox="0 0 1024 1024" version="1.1" xmlns="http://www.w3.org/2000/svg"><path fill="#ffffff" d="M902.5 545.6c6.3 6.3 9.5 13.9 9.5 22.5 0 8.7-3.1 16.2-9.5 22.5-6.3 6.3-13.9 9.5-22.5 9.5H768c0 57-11.1 105.4-33.6 145.1l104 104.6c6.3 6.3 9.5 13.8 9.5 22.5 0 8.6-3.1 16.2-9.5 22.5-6 6.3-13.5 9.5-22.5 9.5-9.1 0-16.5-3.1-22.5-9.5l-98.9-98.7c-1.7 1.7-4.2 3.8-7.5 6.5-3.3 2.6-10.3 7.5-21.1 14.3-10.6 6.8-21.5 13-32.5 18.3-11 5.4-24.7 10.2-41 14.5-16.3 4.3-32.5 6.5-48.5 6.5V408h-64.1v448.1c-17.1 0-34-2.2-50.8-6.7-16.8-4.5-31.3-10-43.5-16.5s-23.1-13.1-33.1-19.4c-9.9-6.5-17.1-11.9-21.8-16.3l-7.5-7-91.3 103.3c-6.6 7-14.7 10.5-24 10.5-8 0-15.1-2.6-21.5-8-6.3-6-9.8-13.5-10.2-22.3-0.5-8.9 2.1-16.6 7.8-23.2l101-113.5c-19.3-38-29.1-83.7-29.1-137.1H144c-8.6 0-16.2-3.1-22.5-9.5-6.3-6.3-9.5-13.8-9.5-22.5 0-8.6 3.1-16.2 9.5-22.5 6.3-6.3 13.8-9.5 22.5-9.5h112V389.1l-86.5-86.5c-6.3-6.3-9.5-13.8-9.5-22.5 0-8.6 3.1-16.2 9.5-22.5s13.8-9.5 22.5-9.5c8.6 0 16.2 3.1 22.5 9.5l86.5 86.5h422l86.5-86.5c6.3-6.3 13.8-9.5 22.5-9.5 8.6 0 16.2 3.1 22.5 9.5 6.3 6.3 9.5 13.9 9.5 22.5s-3.1 16.2-9.5 22.5L768 389.1v147h112c8.8-0.1 16.2 3.1 22.5 9.5zM672.1 280H351.9c0-44.4 15.6-82.1 46.8-113.3 31.1-31.1 68.9-46.8 113.3-46.8s82.1 15.6 113.3 46.8c31.1 31.2 46.8 68.9 46.8 113.3z" /></svg>