<?xml version="1.0" standalone="no"?><!DOCTYPE svg PUBLIC "-//W3C//DTD SVG 1.1//EN" "http://www.w3.org/Graphics/SVG/1.1/DTD/svg11.dtd"><svg class="icon" width="500px" height="500.00px" viewBox="0 0 1024 1024" version="1.1" xmlns="http://www.w3.org/2000/svg"><path fill="#ffffff" d="M647.830595 1016.836857c-3.222391 0-6.350638-1.1328-8.820899-3.157923L447.553199 856.66897c-0.177032-0.146333-0.352017-0.296759-0.522909-0.450255-3.03001-2.7486-4.710278-6.742565-4.556783-10.831696 0.141216-3.776 1.832741-7.349385 4.63353-9.854439l181.971471-162.602332c2.535753-2.264577 5.849218-3.538593 9.268084-3.538593 7.65433 0 13.911848 6.256494 13.911848 13.909801l0 79.805604 2.018983 0.159636c6.418176 0.50756 12.852726 0.76441 19.128663 0.76441 66.199725 0 124.128065-28.745694 167.520341-83.129302 9.414417-11.790534 18.145266-24.758893 25.954115-38.549991 2.448772-4.318352 7.077186-7.057743 12.101619-7.057743 7.173376 0 13.214976 5.526877 13.858636 12.670577 0.020466 0.230244 0.034792 0.461511 0.045025 0.692778 3.154853 79.215156-15.179724 143.041834-54.494125 189.703573-27.90249 33.125445-65.478294 56.93164-111.681592 70.755484-33.718963 10.087753-60.479443 10.92584-62.797231 10.977006l0 0.001023-2.169409 0.025583 0 82.798774C661.742443 1010.574223 655.483902 1016.836857 647.830595 1016.836857zM477.596446 845.460698 634.024148 973.745433l0-67.274196c0-7.608282 6.188956-13.833053 13.779841-13.907755l15.745612-0.183172c0.789992-0.01842 24.692379-0.686638 55.214533-9.8176 40.944528-12.251022 74.060763-33.130561 98.42773-62.059428 26.923186-31.954783 42.679032-73.67293 47.058782-124.413568-0.552585 0.705058-1.106194 1.404999-1.662873 2.102894-48.833195 61.20292-114.252137 93.555769-189.18271 93.555769-7.002484 0-14.173814-0.285502-21.315468-0.851391l-14.730493-1.165546c-0.550539-0.042979-1.099031-0.12075-1.641383-0.229221-6.469342-1.303692-11.177574-7.04137-11.177574-13.640672l0-61.706387L477.596446 845.460698zM410.500305 820.206524c-0.027629-0.020466-0.027629-0.059352-0.011256-0.079818l263.403109-235.360426c0.032746-0.033769 0.086981-0.005117 0.086981 0.037862L673.979138 718.947306c0 0.030699 0.021489 0.054235 0.054235 0.054235 58.07979 0.820692 107.524922-21.23565 147.259902-65.768913 1.297552-85.2148 0.195451-190.845583 0.195451-191.688787L821.488727 164.071799c-5.755074-54.114478-36.975123-93.849458-100.150978-100.152001L229.860155 63.919798c-46.984081 2.047636-98.072643 57.396221-100.118232 100.086509l0 561.900503c12.998035 49.367361 51.714825 92.676749 100.161211 100.158141l187.740872 0L410.500305 820.206524zM327.055824 501.024018l0-34.734082c0-0.031722 0.021489-0.059352 0.054235-0.059352l131.241067 0L458.351126 361.462448l-141.922337 0c-0.033769 0-0.059352-0.027629-0.059352-0.059352l0-34.734082c0-0.036839 0.026606-0.059352 0.059352-0.059352l141.922337 0 0-24.734334-125.426641-131.182738c-0.020466-0.025583-0.01535-0.059352 0.005117-0.079818l25.107841-24.00881c0.022513-0.021489 0.059352-0.016373 0.081864 0.005117l118.157074 123.574457 128.96728-121.193223c0.021489-0.021489 0.059352-0.021489 0.080841 0l23.787776 25.319665c0.021489 0.020466 0.021489 0.059352-0.005117 0.080841L493.203912 302.097386l0 24.512277 140.693346 0c0.032746 0 0.054235 0.022513 0.054235 0.059352l0 34.734082c0 0.031722-0.021489 0.059352-0.054235 0.059352L493.203912 361.462448l0 104.768135 130.012076 0c0.026606 0 0.054235 0.027629 0.054235 0.059352l0 34.734082c0 0.031722-0.021489 0.059352-0.054235 0.059352L493.209028 501.083369l0 170.987303c0 0.025583-0.027629 0.054235-0.059352 0.054235l-34.739199 0c-0.031722 0-0.059352-0.022513-0.059352-0.054235L458.351126 501.083369 327.110059 501.083369C327.077314 501.083369 327.055824 501.05574 327.055824 501.024018z" /></svg>