<?xml version="1.0" standalone="no"?><!DOCTYPE svg PUBLIC "-//W3C//DTD SVG 1.1//EN" "http://www.w3.org/Graphics/SVG/1.1/DTD/svg11.dtd"><svg class="icon" width="500px" height="500.00px" viewBox="0 0 1024 1024" version="1.1" xmlns="http://www.w3.org/2000/svg"><path fill="#ffffff" d="M755.2 220.8h24.00256c20.80256 0 35.2-14.40256 35.2-30.40256v-134.4c-1.60256-19.2-16-32-35.2-32H755.2c-20.80256 0-35.2 14.40256-35.2 33.60256v132.80256c0 16 14.40256 30.39744 35.2 30.39744z m-502.4 0h24.00256c20.80256 0 35.2-14.40256 35.2-30.40256v-134.4c-1.60256-19.2-16-32-35.2-32h-24.00256c-20.80256 0-35.2 14.40256-35.2 33.60256v132.80256c0 16 14.40256 30.39744 35.2 30.39744zM928 132.80256h-68.80256v57.6c0 43.20256-35.2 76.8-78.40256 76.8h-24.00256c-43.20256 0-78.40256-33.60256-78.40256-76.8v-57.6h-321.5872v57.6c0 43.20256-35.2 76.8-78.40256 76.8h-24.00256c-43.20256 0-78.40256-33.60256-78.40256-76.8v-57.6H104.00256c-38.4 0-68.80256 28.8-68.80256 67.2v732.8c0 36.80256 30.40256 67.2 68.80256 67.2h820.80256c38.4 0 68.80256-28.8 70.4-67.2V200.00256c1.59744-38.4-28.80512-67.2-67.20512-67.2zM104.00256 932.80256V355.2h820.80256s0 577.60256 1.60256 577.60256H104.00256zM376.32 477.44c0 11.47904-6.87616 20.79232-15.36 20.79232h-128c-8.48384 0-15.36-9.30816-15.36-20.79232 0-11.47904 6.87616-20.79232 15.36-20.79232h128c8.48384 0 15.36 9.31328 15.36 20.79232zM595.35872 477.44c0 11.47904-6.88128 20.79232-15.36 20.79232h-128c-8.48384 0-15.36-9.30816-15.36-20.79232 0-11.47904 6.87616-20.79232 15.36-20.79232h128c8.48384 0 15.36 9.31328 15.36 20.79232zM814.40256 477.44c0 11.47904-6.88128 20.79232-15.36 20.79232h-128c-8.47872 0-15.36-9.30816-15.36-20.79232 0-11.47904 6.88128-20.79232 15.36-20.79232h128c8.47872 0 15.36 9.31328 15.36 20.79232zM376.32 644.13184c0 11.47904-6.87616 20.79232-15.36 20.79232h-128c-8.48384 0-15.36-9.30816-15.36-20.79232 0-11.47904 6.87616-20.79232 15.36-20.79232h128c8.48384 0 15.36 9.30816 15.36 20.79232zM595.35872 644.13184c0 11.47904-6.88128 20.79232-15.36 20.79232h-128c-8.48384 0-15.36-9.30816-15.36-20.79232 0-11.47904 6.87616-20.79232 15.36-20.79232h128c8.48384 0 15.36 9.30816 15.36 20.79232zM814.40256 644.13184c0 11.47904-6.88128 20.79232-15.36 20.79232h-128c-8.47872 0-15.36-9.30816-15.36-20.79232 0-11.47904 6.88128-20.79232 15.36-20.79232h128c8.47872 0 15.36 9.30816 15.36 20.79232zM376.32 811.20768c0 11.47904-6.87616 20.79232-15.36 20.79232h-128c-8.48384 0-15.36-9.30816-15.36-20.79232 0-11.47904 6.87616-20.79232 15.36-20.79232h128c8.48384 0.00512 15.36 9.31328 15.36 20.79232zM595.35872 811.20768c0 11.47904-6.88128 20.79232-15.36 20.79232h-128c-8.48384 0-15.36-9.30816-15.36-20.79232 0-11.47904 6.87616-20.79232 15.36-20.79232h128c8.48384 0.00512 15.36 9.31328 15.36 20.79232zM814.40256 811.20768c0 11.47904-6.88128 20.79232-15.36 20.79232h-128c-8.47872 0-15.36-9.30816-15.36-20.79232 0-11.47904 6.88128-20.79232 15.36-20.79232h128c8.47872 0.00512 15.36 9.31328 15.36 20.79232z" /></svg>